<?xml version="1.0" encoding="UTF-8"?>
<svg version="1.1" xmlns="http://www.w3.org/2000/svg" width="401" height="401">
<path d="M0 0 C1.96890992 -0.00935994 1.96890992 -0.00935994 3.97759581 -0.01890898 C7.58736369 -0.03547468 11.19670392 -0.02741492 14.80647254 -0.0149641 C18.71248633 -0.00586308 22.6184298 -0.01990823 26.52442932 -0.03088379 C34.16300238 -0.04862001 41.80141774 -0.04485096 49.43999684 -0.03323323 C55.65100526 -0.02417982 61.86196965 -0.02298313 68.07298279 -0.02732849 C68.95878319 -0.02794142 69.8445836 -0.02855436 70.75722644 -0.02918586 C72.55701627 -0.03046483 74.35680608 -0.03176169 76.15659589 -0.03307623 C93.01187578 -0.04446768 109.86706849 -0.03139088 126.72233409 -0.00987476 C141.16800106 0.00799492 155.61353944 0.00489041 170.0592041 -0.0135498 C186.85639006 -0.03498191 203.6534997 -0.04336917 220.45069742 -0.03110075 C222.24366664 -0.02982663 224.03663586 -0.02856914 225.8296051 -0.02732849 C227.1526816 -0.02640284 227.1526816 -0.02640284 228.50248691 -0.02545848 C234.70215172 -0.0220126 240.9017679 -0.02781747 247.10142517 -0.0372467 C254.66232466 -0.04849411 262.22305816 -0.04536923 269.78393877 -0.02412373 C273.63765872 -0.01365003 277.49110245 -0.00942809 281.34482002 -0.02272034 C285.5309805 -0.0369403 289.71645056 -0.01990036 293.90258789 0 C295.10844276 -0.00892289 296.31429763 -0.01784577 297.55669355 -0.02703905 C309.38198353 0.08167126 319.10070344 3.25860036 328.45129395 10.50793457 C329.48383301 11.27750488 329.48383301 11.27750488 330.53723145 12.06262207 C340.64605232 20.157425 346.38876414 31.9872987 347.81697941 44.78460324 C347.96180533 48.24222044 347.98498052 51.67839566 347.95922852 55.13893127 C347.96858846 57.10299751 347.96858846 57.10299751 347.97813749 59.10674185 C347.99468184 62.70284964 347.98665343 66.2985274 347.97419262 69.8946358 C347.96508274 73.78768024 347.979141 77.68065453 347.9901123 81.57368469 C348.0078387 89.18471528 348.00408404 96.79558751 347.99246174 104.40662415 C347.9834051 110.59520213 347.98221303 116.78373593 347.98655701 122.97231865 C347.98716994 123.8552082 347.98778287 124.73809776 347.98841438 125.64774154 C347.98969336 127.44165283 347.99099021 129.23556411 347.99230474 131.02947538 C348.00369314 147.82514821 347.99062386 164.6207335 347.96910328 181.41639196 C347.95123077 195.81031259 347.95434104 210.20410416 347.97277832 224.59802246 C347.99421047 241.33771701 348.00259793 258.07733499 347.99032927 274.81704134 C347.98905515 276.6038163 347.98779766 278.39059127 347.98655701 280.17736626 C347.98563135 281.49585411 347.98563135 281.49585411 347.984687 282.84097807 C347.98124136 289.01861316 347.98704538 295.19619945 347.99647522 301.37382698 C348.00772254 308.9072541 348.00459779 316.44051463 347.98335224 323.9739228 C347.97287891 327.81347318 347.96865601 331.65274632 347.98194885 335.49229431 C347.99616953 339.66307542 347.97912837 343.83316363 347.95922852 348.00392151 C347.97261285 349.80584421 347.97261285 349.80584421 347.98626757 351.64416939 C347.85593525 365.77022903 342.79483292 377.82028457 333.26379395 388.25793457 C321.95501829 398.80603025 309.14224223 401.97001174 294.14309692 401.89561462 C292.83219916 401.90100016 291.52130139 401.9063857 290.17067945 401.91193444 C286.55646276 401.92631828 282.94247547 401.92216663 279.32824659 401.91476762 C275.42084108 401.91002064 271.51348411 401.9225593 267.60609436 401.93278503 C259.96059074 401.9499486 252.3151694 401.95081811 244.66965152 401.94557213 C238.45287908 401.94152456 232.23613088 401.94298095 226.01935959 401.94832039 C225.1332882 401.94906881 224.24721682 401.94981723 223.33429479 401.95058833 C221.5340219 401.95211987 219.73374901 401.95365822 217.93347614 401.9552033 C201.06487007 401.96891956 184.19631043 401.96349685 167.32770543 401.95201809 C151.91050292 401.94208712 136.49342044 401.95502558 121.07623644 401.97895228 C105.22855552 402.00336093 89.38093047 402.01294678 73.53323114 402.00629956 C64.64288299 402.0028112 55.75262714 402.00501403 46.86229324 402.02255058 C39.29403391 402.03729468 31.72593185 402.03787925 24.15767552 402.02047967 C20.29991328 402.01198532 16.44243174 402.00978146 12.58468437 402.02513123 C8.39404968 402.04159845 4.20408811 402.02679016 0.01345825 402.00914001 C-1.19376086 402.01874502 -2.40097996 402.02835003 -3.64478147 402.0382461 C-17.42839022 401.91915386 -29.70128833 397.24338758 -39.79870605 387.75793457 C-50.45370547 376.41551584 -54.16749479 363.2049459 -54.06336975 347.92799377 C-54.07031528 346.61200917 -54.07726081 345.29602457 -54.08441681 343.94016165 C-54.10290749 340.32093285 -54.0967867 336.70211702 -54.08626378 333.08287203 C-54.07923282 329.16660692 -54.09529904 325.25042335 -54.10826111 321.33418274 C-54.12984138 313.67522892 -54.12978963 306.01642403 -54.12163556 298.35744984 C-54.11532162 292.12928608 -54.11648535 285.90116557 -54.12290764 279.67300224 C-54.12380929 278.7847152 -54.12471095 277.89642816 -54.12563993 276.98122333 C-54.12749123 275.17636223 -54.12935379 273.37150114 -54.13122749 271.56664007 C-54.1477851 254.66316796 -54.13910407 237.75977946 -54.12224191 220.85631239 C-54.10754638 205.4107862 -54.12217488 189.96545457 -54.15101207 174.51995344 C-54.1804435 158.63716527 -54.19136746 142.75446678 -54.18182987 126.87165254 C-54.18080738 125.07332927 -54.17981277 123.27500597 -54.17884636 121.47668266 C-54.17836997 120.59200827 -54.17789358 119.70733387 -54.17740275 118.79585116 C-54.17524359 112.58010911 -54.18501609 106.36445245 -54.19961739 100.14872932 C-54.21718097 92.56660749 -54.2169658 84.9847336 -54.19426573 77.40262134 C-54.18315999 73.53859217 -54.17987687 69.67499917 -54.19856644 65.81098938 C-54.21861435 61.61192401 -54.19950516 57.41391138 -54.17689514 53.21485901 C-54.18873087 52.00802603 -54.2005666 50.80119306 -54.21276098 49.55778939 C-54.0513366 34.74171398 -47.87475177 23.60319794 -38.0291748 12.90637207 C-27.55066615 2.77439677 -14.13142156 -0.10456737 0 0 Z " fill="#EDEDEF" transform="translate(53.5487060546875,-0.5079345703125)"/>
<path d="M0 0 C6.27 0 12.54 0 19 0 C19 37.29 19 74.58 19 113 C-10.44171485 114.13237365 -10.44171485 114.13237365 -20.703125 114.17578125 C-22.96094767 114.19889702 -25.21876031 114.2230104 -27.4765625 114.24804688 C-30.90405056 114.28353274 -34.33113648 114.3128105 -37.75878906 114.32592773 C-41.15733427 114.34134118 -44.55485139 114.38137784 -47.953125 114.42578125 C-48.9780304 114.42387283 -50.00293579 114.42196442 -51.05889893 114.41999817 C-56.85527752 114.51991153 -60.49025039 114.97923261 -65 119 C-66.58531276 120.85537341 -66.58531276 120.85537341 -67.67578125 122.90625 C-68.10697266 123.64472168 -68.53816406 124.38319336 -68.98242188 125.14404297 C-69.42134766 125.92150879 -69.86027344 126.69897461 -70.3125 127.5 C-74.76460141 135.09521152 -79.55077629 142.07494487 -85 149 C-86.0035806 150.33064035 -87.00498205 151.66294463 -88 153 C-90.54484328 152.63567415 -91.71361817 152.33122734 -93.421875 150.35546875 C-93.86015625 149.64003906 -94.2984375 148.92460937 -94.75 148.1875 C-95.52150391 146.96546875 -95.52150391 146.96546875 -96.30859375 145.71875 C-96.86675781 144.8215625 -97.42492187 143.924375 -98 143 C-107.31110426 127.45813739 -107.31110426 127.45813739 -120 115 C-123.32425947 114.37840078 -123.32425947 114.37840078 -126.953125 114.42578125 C-127.61278259 114.41161667 -128.27244019 114.39745209 -128.9520874 114.38285828 C-131.0515576 114.3411608 -133.15017571 114.32578391 -135.25 114.3125 C-138.00533633 114.27376009 -140.76045722 114.22491837 -143.515625 114.17578125 C-145.45405273 114.14411865 -145.45405273 114.14411865 -147.43164062 114.11181641 C-151.67547353 113.97883368 -155.79544655 113.5746223 -160 113 C-160 107.72 -160 102.44 -160 97 C-146.4161818 96.03831376 -146.4161818 96.03831376 -142.48046875 98.7109375 C-140.23718282 101.32731731 -138.53744712 103.92510576 -137 107 C-136.99413376 106.09433289 -136.98826752 105.18866577 -136.98222351 104.2555542 C-136.92432433 95.72126179 -136.85226359 87.18723187 -136.76428509 78.65319443 C-136.71955388 74.26572251 -136.68030393 69.87834404 -136.65356445 65.49072266 C-136.62755875 61.25655321 -136.58717604 57.02274283 -136.53681374 52.78879547 C-136.52012646 51.1733166 -136.50862376 49.5577756 -136.50238609 47.9422226 C-136.49276496 45.67952313 -136.46473131 43.41774612 -136.43237305 41.15527344 C-136.42126999 39.86731873 -136.41016693 38.57936401 -136.39872742 37.25238037 C-135.96210341 33.69088126 -135.49143288 32.51010343 -133 30 C-130.55374622 29.50780869 -130.55374622 29.50780869 -127.59004211 29.51898193 C-125.90523239 29.51073395 -125.90523239 29.51073395 -124.18638611 29.50231934 C-122.95352371 29.51670044 -121.72066132 29.53108154 -120.45043945 29.54589844 C-119.15277649 29.54531433 -117.85511353 29.54473022 -116.51812744 29.54412842 C-112.95828034 29.54297938 -109.39897089 29.56651852 -105.8392489 29.59442425 C-102.11968213 29.61940679 -98.40010342 29.6217774 -94.6804657 29.62652588 C-87.63621066 29.63896498 -80.59220354 29.67179902 -73.54805773 29.71192384 C-65.52882874 29.75661266 -57.50958798 29.77862128 -49.49026549 29.79870558 C-32.99334226 29.84053107 -16.49676057 29.91389481 0 30 C0 20.1 0 10.2 0 0 Z " fill="#EDEDED" transform="translate(263,114)"/>
<path d="M0 0 C0.73834699 -0.00467997 1.47669399 -0.00935994 2.23741513 -0.01418173 C4.68860066 -0.02605941 7.13921957 -0.01670341 9.59040833 -0.00723267 C11.35685551 -0.01130149 13.12330015 -0.01664511 14.88973999 -0.02316284 C19.67050511 -0.0368023 24.45107532 -0.03155253 29.23184371 -0.02202559 C34.23966088 -0.01441509 39.24746169 -0.02147813 44.25527954 -0.02618408 C52.66063933 -0.03163607 61.06591994 -0.02446305 69.4712677 -0.01016235 C79.18824444 0.00617901 88.90503248 0.00086262 98.62200469 -0.01564157 C106.97038679 -0.0292533 115.31871207 -0.03117811 123.66710168 -0.02332556 C128.65100564 -0.01864938 133.63482085 -0.01802305 138.6187191 -0.02793503 C143.30145679 -0.0365984 147.98395085 -0.03059431 152.66666222 -0.01325226 C154.38516332 -0.00928474 156.10368493 -0.010426 157.82217789 -0.01704025 C160.16745491 -0.02523507 162.51195053 -0.01495992 164.85717773 0 C166.82575131 0.00169662 166.82575131 0.00169662 168.83409405 0.00342751 C172.49006938 0.40889415 174.34265047 1.1545918 177.2381134 3.38095093 C179.3962753 6.61819378 179.48998183 7.4918613 179.49880981 11.22576904 C179.50589462 12.22395157 179.51297943 13.22213409 179.52027893 14.25056458 C179.51780151 15.34466141 179.5153241 16.43875824 179.51277161 17.56600952 C179.51788254 18.71909103 179.52299347 19.87217255 179.52825928 21.06019592 C179.54219332 24.88331246 179.54119551 28.70624947 179.53889465 32.52938843 C179.54179817 34.51118811 179.54470602 36.49298786 179.5483014 38.4747864 C179.55939987 44.70817473 179.55983245 50.94150281 179.55378723 57.17489624 C179.5477496 63.60228609 179.56005215 70.02945692 179.5813573 76.4568094 C179.59898192 81.97708639 179.60497322 87.49729372 179.60171956 93.01759779 C179.59990751 96.31369554 179.60384872 99.60960236 179.6164341 102.90568161 C179.62875038 106.5829944 179.62203495 110.2597988 179.61042786 113.93710327 C179.61807159 115.02715164 179.62571533 116.11720001 179.6335907 117.24028015 C179.58839594 123.70812747 179.09752774 127.38036302 174.52529907 132.17832947 C171.26785184 133.89112262 168.22756091 133.72483778 164.6431427 133.62289429 C163.5033345 133.60926849 163.5033345 133.60926849 162.34049988 133.59536743 C160.6931398 133.57504683 159.045847 133.54853821 157.3986721 133.51655388 C154.78760997 133.47035728 152.17762602 133.45036613 149.56619263 133.43894958 C142.14291414 133.40592986 134.72094086 133.35873747 127.29890442 133.21322632 C122.75487975 133.12605019 118.21368637 133.09760114 113.66887856 133.10705757 C111.94116427 133.09959211 110.21339757 133.07038338 108.48644066 133.01869011 C103.17389553 132.86476471 98.36457537 132.87687284 93.2381134 134.38095093 C89.70863558 137.97490302 88.10400441 141.76538138 86.2381134 146.38095093 C85.13909651 148.07885365 83.99972082 149.75219275 82.8006134 151.38095093 C79.43670212 156.05262997 76.31905257 160.85947398 73.2303009 165.71688843 C70.7228432 169.06999854 67.99066482 171.50467522 64.2381134 173.38095093 C62.24983215 173.40048218 62.24983215 173.40048218 59.9256134 173.19345093 C59.16635559 173.13802124 58.40709778 173.08259155 57.62483215 173.02548218 C53.22065241 171.8361374 50.82841981 169.30893798 48.42170715 165.52548218 C47.55739075 163.87612671 47.55739075 163.87612671 46.6756134 162.19345093 C43.44107104 156.22669433 39.79478271 150.66168369 35.8631134 145.13095093 C35.33902893 144.39207642 34.81494446 143.6532019 34.27497864 142.89193726 C31.01346084 137.78337498 31.01346084 137.78337498 26.08161926 134.75546265 C22.59815821 134.29666388 19.25566815 134.32390664 15.74201965 134.38876343 C14.28174013 134.40627855 12.82145323 134.42318695 11.36116028 134.43954468 C9.0789669 134.47047469 6.79714885 134.50602125 4.51521301 134.55233765 C2.29910219 134.59488621 0.08342903 134.61817016 -2.13298035 134.63876343 C-3.45225525 134.66083862 -4.77153015 134.68291382 -6.13078308 134.70565796 C-11.39633336 134.23479251 -14.3464924 132.76544453 -18.11027527 129.08383179 C-21.23128128 123.79800464 -20.26606477 117.05899316 -20.18766785 111.13485718 C-20.18318864 109.70085058 -20.1804087 108.2668378 -20.17921448 106.83282471 C-20.17068316 102.9956259 -20.13685037 99.15905018 -20.09705734 95.32206345 C-20.06682656 92.15025228 -20.05009599 88.97843055 -20.033494 85.80652332 C-19.98778814 77.12560329 -19.90617401 68.44534562 -19.80937195 59.76486206 C-19.76424755 55.69650349 -19.7284175 51.62812938 -19.69450378 47.55966187 C-19.64603947 41.97841953 -19.58024141 36.39774845 -19.49440002 30.81695557 C-19.46454707 28.82834371 -19.43864645 26.83966834 -19.41682434 24.85095215 C-19.38402255 22.12996726 -19.33201935 19.41008403 -19.27360535 16.68954468 C-19.26719025 15.90949066 -19.26077515 15.12943665 -19.25416565 14.32574463 C-19.13117083 9.86315689 -18.80800932 6.73693851 -15.7618866 3.38095093 C-10.28559354 0.95477002 -6.05515815 0.00521414 0 0 Z M150.2381134 10.38095093 C150.2381134 20.28095093 150.2381134 30.18095093 150.2381134 40.38095093 C144.21823181 40.34953003 144.21823181 40.34953003 138.07673645 40.31747437 C124.84133364 40.25130041 111.60593348 40.20685045 98.37040997 40.17370224 C90.34290838 40.15306373 82.31556334 40.12491875 74.28816223 40.07919312 C67.29269442 40.03936452 60.29733996 40.01352749 53.30176193 40.00459695 C49.59648568 39.99937537 45.89153376 39.98707666 42.18636131 39.9580307 C38.05331824 39.92589238 33.92084149 39.92498894 29.78767395 39.92684937 C28.55481155 39.91246826 27.32194916 39.89808716 26.05172729 39.88327026 C24.36691757 39.89151825 24.36691757 39.89151825 22.64807129 39.89993286 C21.67004893 39.89624569 20.69202658 39.89255852 19.68436718 39.88875961 C17.11053275 40.17039991 17.11053275 40.17039991 15.4249115 42.20774078 C13.706868 45.35374309 13.83652472 47.96523864 13.80574036 51.53622437 C13.79554871 52.24881912 13.78535706 52.96141388 13.77485657 53.69560242 C13.7447347 56.04392365 13.7354622 58.39183692 13.72639465 60.74032593 C13.70954731 62.37130081 13.69139698 64.00226271 13.67199707 65.63320923 C13.62449674 69.92064356 13.59468772 74.20802526 13.56855774 78.49563599 C13.53875231 82.87287795 13.49222194 87.24993857 13.44709778 91.62704468 C13.36106431 100.21159101 13.29371937 108.79615384 13.2381134 117.38095093 C12.74440247 116.74286499 12.25069153 116.10477905 11.74201965 115.44735718 C11.10135559 114.62106812 10.46069153 113.79477905 9.8006134 112.94345093 C9.16252747 112.11973999 8.52444153 111.29602905 7.86701965 110.44735718 C6.40229144 108.50593826 6.40229144 108.50593826 5.2381134 107.38095093 C2.70533691 107.30774929 0.20707423 107.28867524 -2.3243866 107.31845093 C-4.7787616 107.33907593 -7.2331366 107.35970093 -9.7618866 107.38095093 C-9.7618866 112.66095093 -9.7618866 117.94095093 -9.7618866 123.38095093 C-4.25976514 124.14344004 1.09526111 124.44933626 6.6521759 124.48641968 C8.00374215 124.50105128 9.35530467 124.51603107 10.7068634 124.53134155 C12.79171639 124.5542061 14.87482979 124.56838135 16.95979309 124.55599976 C30.09510882 124.49903695 30.09510882 124.49903695 34.4178009 128.04501343 C35.938797 129.68930054 35.938797 129.68930054 37.2381134 131.38095093 C38.0321759 132.38513062 38.8262384 133.3893103 39.6443634 134.42391968 C40.3353009 135.46161499 41.0262384 136.4993103 41.7381134 137.56845093 C42.30429382 138.40992676 42.30429382 138.40992676 42.88191223 139.2684021 C45.87430476 143.74215206 48.73666029 148.29890414 51.5974884 152.85751343 C53.96737283 156.50262137 56.5604079 159.9578036 59.2381134 163.38095093 C61.07343634 163.36132437 61.07343634 163.36132437 63.2381134 162.38095093 C65.09004034 160.27089479 66.6922183 158.22781722 68.3006134 155.94345093 C68.7752301 155.28691528 69.2498468 154.63037964 69.73884583 153.95394897 C73.97866128 147.98527673 77.76517907 141.75070526 81.35749817 135.37338257 C81.77829651 134.65013794 82.19909485 133.92689331 82.63264465 133.18173218 C82.99205139 132.54404907 83.35145813 131.90636597 83.72175598 131.24935913 C86.45538506 127.88106685 89.22485866 125.69972156 93.60427856 125.00630188 C96.50425424 124.83790574 99.38011141 124.80132318 102.2849884 124.80673218 C103.36902954 124.7925676 104.45307068 124.77840302 105.56996155 124.7638092 C109.04277736 124.72199557 112.51508226 124.70674182 115.9881134 124.69345093 C119.38948493 124.66390987 122.79074162 124.62867411 126.19203186 124.59095764 C128.30066243 124.56936931 130.40935945 124.55303343 132.51808167 124.54411316 C144.78048882 124.45952437 156.96172446 123.85311973 169.2381134 123.38095093 C169.2381134 86.09095093 169.2381134 48.80095093 169.2381134 10.38095093 C162.9681134 10.38095093 156.6981134 10.38095093 150.2381134 10.38095093 Z " fill="#FDDD71" transform="translate(112.76188659667969,103.61904907226563)"/>
<path d="M0 0 C0.33 0 0.66 0 1 0 C1 9.9 1 19.8 1 30 C3.63613281 29.97679687 6.27226562 29.95359375 8.98828125 29.9296875 C11.53995278 29.91409234 14.09161902 29.90194682 16.64331055 29.89013672 C18.41742324 29.88007589 20.19151935 29.86642578 21.96557617 29.84912109 C24.51485284 29.82487622 27.06391037 29.81351782 29.61328125 29.8046875 C30.40712723 29.79436493 31.20097321 29.78404236 32.01887512 29.77340698 C35.88223043 29.7726189 37.70839446 29.80559631 41 32 C41.37752342 34.09897614 41.37752342 34.09897614 41.38095093 36.74475098 C41.3894104 37.74589432 41.39786987 38.74703766 41.40658569 39.77851868 C41.39747665 41.43212654 41.39747665 41.43212654 41.38818359 43.11914062 C41.39606903 44.85577217 41.39606903 44.85577217 41.40411377 46.62748718 C41.417363 50.47054367 41.40855797 54.313189 41.3984375 58.15625 C41.40045681 60.81661499 41.40336204 63.47696729 41.40713501 66.1373291 C41.41259691 71.71936534 41.40538965 77.3012826 41.39111328 82.88330078 C41.37478581 89.34198303 41.38007402 95.80038121 41.3965925 102.25905657 C41.41019509 107.79880983 41.41213308 113.33847745 41.40427649 118.87824202 C41.39959315 122.18933547 41.4001664 125.50026565 41.40888596 128.81135559 C41.41646989 132.50138806 41.40493855 136.19086825 41.38818359 139.88085938 C41.39425629 140.98326462 41.40032898 142.08566986 41.40658569 143.22148132 C41.39389648 144.72319633 41.39389648 144.72319633 41.38095093 146.25524902 C41.37981985 147.12835472 41.37868877 148.00146042 41.37752342 148.90102386 C41.25294069 149.59368599 41.12835796 150.28634811 41 151 C37.40292742 153.39804838 34.82281857 153.27978703 30.67041016 153.25537109 C29.92697861 153.25899155 29.18354706 153.262612 28.41758728 153.26634216 C26.80358736 153.27323431 25.18956415 153.27574194 23.57555008 153.27439499 C21.01980058 153.27343023 18.46447223 153.28636592 15.90878296 153.30337524 C8.64267243 153.34966225 1.37660442 153.37425296 -5.88964844 153.38085938 C-10.33476646 153.38587551 -14.7794455 153.41013112 -19.22441483 153.44618607 C-20.91723621 153.45598258 -22.61011801 153.4583168 -24.30295944 153.45301437 C-26.67299001 153.44593957 -29.04171397 153.46323309 -31.41162109 153.48583984 C-32.10893845 153.47766739 -32.8062558 153.46949493 -33.52470398 153.46107483 C-38.28085485 153.54167507 -40.6260414 154.69183127 -44 158 C-45.43128158 159.63737038 -45.43128158 159.63737038 -46.54296875 161.36328125 C-47.18697632 162.31231323 -47.18697632 162.31231323 -47.84399414 163.28051758 C-48.28735107 163.95107178 -48.73070801 164.62162598 -49.1875 165.3125 C-49.65728271 166.00947998 -50.12706543 166.70645996 -50.61108398 167.42456055 C-52.08202208 169.61115667 -53.54156462 171.80504989 -55 174 C-55.95525197 175.4274028 -56.9109709 176.85449323 -57.8671875 178.28125 C-60.25419527 181.84797986 -62.62899591 185.42261419 -65 189 C-67 192 -67 192 -68.84765625 192.64453125 C-72.7028246 192.93689851 -75.09044058 192.67979267 -78.2421875 190.32421875 C-83.45789342 184.80225252 -87.35860753 178.46533779 -91.24731445 171.98339844 C-94.51139481 166.58828778 -98.16413971 161.93476475 -102.3828125 157.234375 C-104 155 -104 155 -104 151 C-102.71484375 148.5546875 -102.71484375 148.5546875 -100.9375 145.875 C-100.30070313 144.90820312 -99.66390625 143.94140625 -99.0078125 142.9453125 C-96.60848991 139.42568364 -94.17020497 135.93727657 -91.67578125 132.484375 C-89.83706001 129.90876011 -89.83706001 129.90876011 -88.37193298 126.39616394 C-87.29961967 124.52614403 -87.29961967 124.52614403 -86 123 C-83.09805806 122.28192447 -81.27521174 122.087489 -78.37329102 122.17700195 C-77.6102063 122.17265137 -76.84712158 122.16830078 -76.06091309 122.16381836 C-73.54076774 122.15680983 -71.0237027 122.19816045 -68.50390625 122.23828125 C-66.7503997 122.23905363 -64.99688804 122.23616841 -63.24339294 122.2297821 C-58.62695242 122.22018431 -54.01163428 122.2488477 -49.39538574 122.28894043 C-42.01057203 122.35035591 -34.62604815 122.37015599 -27.24101067 122.35912132 C-24.66308531 122.36322682 -22.08638433 122.39353369 -19.50868225 122.42610168 C-17.92449143 122.42998341 -16.34029798 122.4329371 -14.75610352 122.43481445 C-14.04165573 122.45084213 -13.32720795 122.46686981 -12.59111023 122.48338318 C-9.04559801 122.4631654 -7.10568314 122.06653171 -4.07774353 120.1603241 C-1.05241162 117.01474942 -0.87372551 114.45804211 -0.84178162 110.27339172 C-0.8319928 109.30164001 -0.82220398 108.32988831 -0.81211853 107.32868958 C-0.80636307 106.26414047 -0.8006076 105.19959137 -0.79467773 104.1027832 C-0.78477814 102.98068451 -0.77487854 101.85858582 -0.76467896 100.70248413 C-0.73303507 96.98527146 -0.70829501 93.26804601 -0.68359375 89.55078125 C-0.66302673 86.9767371 -0.64203032 84.40269634 -0.62062073 81.82865906 C-0.57102405 75.74077642 -0.52576545 69.65287562 -0.48259836 63.56494445 C-0.43321177 56.63389954 -0.37829892 49.70290188 -0.32291877 42.77190268 C-0.20912426 28.51464617 -0.1022797 14.25734353 0 0 Z " fill="#90D3F9" transform="translate(292,114)"/>
<path d="M0 0 C10.0014013 0.27401099 18.85819761 10.16050741 26.1328125 16.21875 C30.0067481 19.4323334 34.00910908 22.45489217 38.0625 25.4375 C36.34928892 29.18351496 34.69112115 30.70330681 31.1875 32.9375 C30.32382812 33.5046875 29.46015625 34.071875 28.5703125 34.65625 C18.96888382 39.53180844 10.19213264 41.02377267 -0.49966431 40.93870544 C-1.81368205 40.94423984 -3.1276998 40.94977424 -4.48153627 40.95547634 C-8.09517493 40.97011793 -11.7083728 40.96011804 -15.32199669 40.94573963 C-19.23205493 40.93456895 -23.14205439 40.94659237 -27.05210876 40.95558167 C-34.69803921 40.9694741 -42.34380386 40.96198798 -49.98972632 40.94690608 C-58.90176851 40.9299993 -67.81376993 40.93326205 -76.72582321 40.93700016 C-92.63039992 40.94287125 -108.53489731 40.92873581 -124.43945312 40.90405273 C-139.85842866 40.88012609 -155.27729829 40.87305259 -170.69628906 40.88354492 C-187.5059027 40.89496312 -204.31546741 40.89687367 -221.12508047 40.88244683 C-222.91857552 40.88092105 -224.71207058 40.8794007 -226.50556564 40.87788582 C-227.38789807 40.877128 -228.27023049 40.87637019 -229.17930026 40.87558941 C-235.3859047 40.87085419 -241.59248724 40.87269255 -247.79909134 40.87695122 C-255.36515103 40.88188593 -262.93111074 40.87585742 -270.49714758 40.85605692 C-274.35462538 40.84620926 -278.2119512 40.84105243 -282.06943703 40.84894943 C-286.25620219 40.857345 -290.44256475 40.84238036 -294.62930298 40.82518005 C-295.84098353 40.8311901 -297.05266408 40.83720014 -298.30106223 40.84339231 C-305.34065835 40.79084538 -311.33005274 39.9066781 -317.9375 37.4375 C-317.9375 37.1075 -317.9375 36.7775 -317.9375 36.4375 C-310.47748071 35.55659127 -303.01715704 34.67829832 -295.55646992 33.80306435 C-292.08966743 33.39628684 -288.62296315 32.9887119 -285.15649414 32.57910156 C-281.14238109 32.10492304 -277.12798753 31.63319218 -273.11328125 31.1640625 C-272.12553396 31.04862469 -272.12553396 31.04862469 -271.11783218 30.9308548 C-262.02231229 29.87158968 -252.92391437 28.93042937 -243.80450439 28.10505676 C-237.94921962 27.56476999 -232.15158014 26.80167259 -226.33642578 25.92431641 C-220.45678716 25.08219606 -214.5501257 24.48319718 -208.64376831 23.86328125 C-204.60566844 23.43917294 -200.56852935 23.00605603 -196.53125 22.57421875 C-195.67776474 22.48312836 -194.82427948 22.39203796 -193.94493103 22.29818726 C-181.81984925 21.0015173 -169.70156689 19.6431721 -157.58251953 18.29150391 C-156.15841263 18.13267731 -156.15841263 18.13267731 -154.70553589 17.97064209 C-152.81061275 17.75930484 -150.9156949 17.54792014 -149.02078247 17.33648682 C-143.29322962 16.69801542 -137.56494534 16.0666756 -131.8359375 15.44140625 C-109.33133141 12.9804082 -86.85583461 10.2931291 -64.3807373 7.57687378 C-54.29248469 6.35808888 -44.20274045 5.15197553 -34.11236572 3.95089722 C-31.44840057 3.63373871 -28.7845008 3.31603532 -26.12060547 2.99829102 C-24.49577283 2.8048116 -22.87093584 2.61136875 -21.24609375 2.41796875 C-20.53268326 2.33282013 -19.81927277 2.24767151 -19.08424377 2.15994263 C-12.72671013 1.40447384 -6.36305592 0.70700621 0 0 Z " fill="#D197FC" transform="translate(347.9375,360.5625)"/>
<path d="M0 0 C0.73834699 -0.00467997 1.47669399 -0.00935994 2.23741513 -0.01418173 C4.68860066 -0.02605941 7.13921957 -0.01670341 9.59040833 -0.00723267 C11.35685551 -0.01130149 13.12330015 -0.01664511 14.88973999 -0.02316284 C19.67050511 -0.0368023 24.45107532 -0.03155253 29.23184371 -0.02202559 C34.23966088 -0.01441509 39.24746169 -0.02147813 44.25527954 -0.02618408 C52.66063933 -0.03163607 61.06591994 -0.02446305 69.4712677 -0.01016235 C79.18824444 0.00617901 88.90503248 0.00086262 98.62200469 -0.01564157 C106.97038679 -0.0292533 115.31871207 -0.03117811 123.66710168 -0.02332556 C128.65100564 -0.01864938 133.63482085 -0.01802305 138.6187191 -0.02793503 C143.30145679 -0.0365984 147.98395085 -0.03059431 152.66666222 -0.01325226 C154.38516332 -0.00928474 156.10368493 -0.010426 157.82217789 -0.01704025 C160.16745491 -0.02523507 162.51195053 -0.01495992 164.85717773 0 C166.82575131 0.00169662 166.82575131 0.00169662 168.83409405 0.00342751 C172.49006938 0.40889415 174.34265047 1.1545918 177.2381134 3.38095093 C179.3962753 6.61819378 179.48998183 7.4918613 179.49880981 11.22576904 C179.50589462 12.22395157 179.51297943 13.22213409 179.52027893 14.25056458 C179.51780151 15.34466141 179.5153241 16.43875824 179.51277161 17.56600952 C179.51788254 18.71909103 179.52299347 19.87217255 179.52825928 21.06019592 C179.54219332 24.88331246 179.54119551 28.70624947 179.53889465 32.52938843 C179.54179817 34.51118811 179.54470602 36.49298786 179.5483014 38.4747864 C179.55939987 44.70817473 179.55983245 50.94150281 179.55378723 57.17489624 C179.5477496 63.60228609 179.56005215 70.02945692 179.5813573 76.4568094 C179.59898192 81.97708639 179.60497322 87.49729372 179.60171956 93.01759779 C179.59990751 96.31369554 179.60384872 99.60960236 179.6164341 102.90568161 C179.62875038 106.5829944 179.62203495 110.2597988 179.61042786 113.93710327 C179.61807159 115.02715164 179.62571533 116.11720001 179.6335907 117.24028015 C179.58839594 123.70812747 179.09752774 127.38036302 174.52529907 132.17832947 C171.26785184 133.89112262 168.22756091 133.72483778 164.6431427 133.62289429 C163.5033345 133.60926849 163.5033345 133.60926849 162.34049988 133.59536743 C160.6931398 133.57504683 159.045847 133.54853821 157.3986721 133.51655388 C154.78760997 133.47035728 152.17762602 133.45036613 149.56619263 133.43894958 C142.14291414 133.40592986 134.72094086 133.35873747 127.29890442 133.21322632 C122.75487975 133.12605019 118.21368637 133.09760114 113.66887856 133.10705757 C111.94116427 133.09959211 110.21339757 133.07038338 108.48644066 133.01869011 C103.17389553 132.86476471 98.36457537 132.87687284 93.2381134 134.38095093 C89.70863558 137.97490302 88.10400441 141.76538138 86.2381134 146.38095093 C85.13909651 148.07885365 83.99972082 149.75219275 82.8006134 151.38095093 C79.43670212 156.05262997 76.31905257 160.85947398 73.2303009 165.71688843 C70.7228432 169.06999854 67.99066482 171.50467522 64.2381134 173.38095093 C62.24983215 173.40048218 62.24983215 173.40048218 59.9256134 173.19345093 C59.16635559 173.13802124 58.40709778 173.08259155 57.62483215 173.02548218 C53.22065241 171.8361374 50.82841981 169.30893798 48.42170715 165.52548218 C47.55739075 163.87612671 47.55739075 163.87612671 46.6756134 162.19345093 C43.44107104 156.22669433 39.79478271 150.66168369 35.8631134 145.13095093 C35.33902893 144.39207642 34.81494446 143.6532019 34.27497864 142.89193726 C31.01346084 137.78337498 31.01346084 137.78337498 26.08161926 134.75546265 C22.59815821 134.29666388 19.25566815 134.32390664 15.74201965 134.38876343 C14.28174013 134.40627855 12.82145323 134.42318695 11.36116028 134.43954468 C9.0789669 134.47047469 6.79714885 134.50602125 4.51521301 134.55233765 C2.29910219 134.59488621 0.08342903 134.61817016 -2.13298035 134.63876343 C-3.45225525 134.66083862 -4.77153015 134.68291382 -6.13078308 134.70565796 C-11.39633336 134.23479251 -14.3464924 132.76544453 -18.11027527 129.08383179 C-21.23128128 123.79800464 -20.26606477 117.05899316 -20.18766785 111.13485718 C-20.18318864 109.70085058 -20.1804087 108.2668378 -20.17921448 106.83282471 C-20.17068316 102.9956259 -20.13685037 99.15905018 -20.09705734 95.32206345 C-20.06682656 92.15025228 -20.05009599 88.97843055 -20.033494 85.80652332 C-19.98778814 77.12560329 -19.90617401 68.44534562 -19.80937195 59.76486206 C-19.76424755 55.69650349 -19.7284175 51.62812938 -19.69450378 47.55966187 C-19.64603947 41.97841953 -19.58024141 36.39774845 -19.49440002 30.81695557 C-19.46454707 28.82834371 -19.43864645 26.83966834 -19.41682434 24.85095215 C-19.38402255 22.12996726 -19.33201935 19.41008403 -19.27360535 16.68954468 C-19.26719025 15.90949066 -19.26077515 15.12943665 -19.25416565 14.32574463 C-19.13117083 9.86315689 -18.80800932 6.73693851 -15.7618866 3.38095093 C-10.28559354 0.95477002 -6.05515815 0.00521414 0 0 Z M-9.7618866 10.38095093 C-9.7618866 47.67095093 -9.7618866 84.96095093 -9.7618866 123.38095093 C-4.06360533 124.01409329 1.00909652 124.49357617 6.6521759 124.48641968 C8.00375452 124.49986087 9.35531819 124.51488129 10.7068634 124.53134155 C12.79171639 124.5542061 14.87482979 124.56838135 16.95979309 124.55599976 C30.09510882 124.49903695 30.09510882 124.49903695 34.4178009 128.04501343 C35.938797 129.68930054 35.938797 129.68930054 37.2381134 131.38095093 C38.0321759 132.38513062 38.8262384 133.3893103 39.6443634 134.42391968 C40.3353009 135.46161499 41.0262384 136.4993103 41.7381134 137.56845093 C42.30429382 138.40992676 42.30429382 138.40992676 42.88191223 139.2684021 C45.87430476 143.74215206 48.73666029 148.29890414 51.5974884 152.85751343 C53.96737283 156.50262137 56.5604079 159.9578036 59.2381134 163.38095093 C61.07343634 163.36132437 61.07343634 163.36132437 63.2381134 162.38095093 C65.09004034 160.27089479 66.6922183 158.22781722 68.3006134 155.94345093 C68.7752301 155.28691528 69.2498468 154.63037964 69.73884583 153.95394897 C73.97866128 147.98527673 77.76517907 141.75070526 81.35749817 135.37338257 C81.77829651 134.65013794 82.19909485 133.92689331 82.63264465 133.18173218 C82.99205139 132.54404907 83.35145813 131.90636597 83.72175598 131.24935913 C86.45538506 127.88106685 89.22485866 125.69972156 93.60427856 125.00630188 C96.50425424 124.83790574 99.38011141 124.80132318 102.2849884 124.80673218 C103.36902954 124.7925676 104.45307068 124.77840302 105.56996155 124.7638092 C109.04277736 124.72199557 112.51508226 124.70674182 115.9881134 124.69345093 C119.38948493 124.66390987 122.79074162 124.62867411 126.19203186 124.59095764 C128.30066243 124.56936931 130.40935945 124.55303343 132.51808167 124.54411316 C144.78048882 124.45952437 156.96172446 123.85311973 169.2381134 123.38095093 C169.2381134 86.09095093 169.2381134 48.80095093 169.2381134 10.38095093 C110.1681134 10.38095093 51.0981134 10.38095093 -9.7618866 10.38095093 Z " fill="#696D74" transform="translate(112.76188659667969,103.61904907226563)"/>
<path d="M0 0 C0.74209312 -0.00367669 1.48418623 -0.00735338 2.24876702 -0.01114148 C4.74838128 -0.02220053 7.24795401 -0.02602588 9.74758911 -0.02983093 C11.53447604 -0.03609381 13.32136167 -0.04274046 15.10824585 -0.04974365 C19.97187271 -0.06716752 24.83548973 -0.07770879 29.69914007 -0.08594918 C32.73546489 -0.09109547 35.77178663 -0.09717131 38.80810928 -0.10346031 C48.30148978 -0.12251464 57.79486248 -0.13674632 67.28825843 -0.14507228 C78.25936769 -0.1548523 89.23027559 -0.18119074 100.20131385 -0.22157317 C108.67353518 -0.25169172 117.14569865 -0.26653702 125.61797249 -0.26985329 C130.68191776 -0.2722083 135.74564797 -0.28122722 140.80953598 -0.30631447 C145.5718216 -0.32952634 150.33374953 -0.33385631 155.09607697 -0.32355309 C156.84564781 -0.32305596 158.59523585 -0.32942816 160.34475327 -0.34310913 C162.73026855 -0.36072247 165.11448533 -0.35377523 167.5 -0.34057617 C168.19513698 -0.35154542 168.89027397 -0.36251466 169.60647571 -0.37381631 C172.93966051 -0.32917559 174.62972231 -0.04113599 177.31363106 2.00285053 C180.22141373 5.99121376 179.10381157 10.38378445 178.87698364 15.14717102 C185.14698364 15.14717102 191.41698364 15.14717102 197.87698364 15.14717102 C197.87698364 15.47717102 197.87698364 15.80717102 197.87698364 16.14717102 C196.97214737 16.14955937 196.0673111 16.15194773 195.13505554 16.15440845 C173.10918696 16.21356776 151.08342772 16.2891239 129.05767822 16.38288593 C118.40614817 16.42783413 107.75465148 16.4672511 97.10305786 16.49360657 C87.8181503 16.51659449 78.53334841 16.5500015 69.24852467 16.59587258 C64.33316802 16.61979399 59.41791595 16.63852989 54.50250244 16.64478493 C49.8731796 16.65084062 45.24412431 16.67085816 40.61490059 16.70144653 C38.91864442 16.71021895 37.22235329 16.71395099 35.52607536 16.71217918 C33.20328492 16.71051945 30.88130338 16.72728415 28.55862427 16.7484436 C26.61179749 16.75535705 26.61179749 16.75535705 24.62564087 16.76241016 C20.33516939 17.20278264 16.67007876 18.06213966 12.87698364 20.14717102 C10.83949949 22.7934853 10.61893677 25.10009501 10.56054688 28.38661194 C10.53118042 29.6443618 10.53118042 29.6443618 10.5012207 30.92752075 C10.48970978 31.83886276 10.47819885 32.75020477 10.46633911 33.68916321 C10.43664032 35.1384446 10.43664032 35.1384446 10.40634155 36.61700439 C10.34318828 39.80925205 10.29362789 43.00155922 10.24417114 46.19404602 C10.20302539 48.40794925 10.16103226 50.62183689 10.1182251 52.83570862 C10.00785235 58.66183337 9.90900382 64.48809911 9.81253052 70.31446838 C9.71205012 76.26013228 9.60070433 82.2055915 9.49026489 88.15107727 C9.27518589 99.816267 9.07227744 111.48163446 8.87698364 123.14717102 C6.1045335 123.28204697 3.33861276 123.38117909 0.56448364 123.45967102 C-0.22119995 123.50156555 -1.00688354 123.54346008 -1.81637573 123.58662415 C-4.02299474 123.63357349 -5.96629907 123.6223022 -8.12301636 123.14717102 C-10.10348511 120.75263977 -10.10348511 120.75263977 -11.12301636 118.14717102 C-11.45301636 117.48717102 -11.78301636 116.82717102 -12.12301636 116.14717102 C-12.22130912 114.68876684 -12.25804239 113.22598497 -12.26345825 111.76428223 C-12.2691684 110.84320175 -12.27487854 109.92212128 -12.28076172 108.97312927 C-12.28187958 107.95959381 -12.28299744 106.94605835 -12.28414917 105.90180969 C-12.28911407 104.83665634 -12.29407898 103.77150299 -12.29919434 102.67407227 C-12.31384214 99.13775495 -12.32062246 95.60148249 -12.32614136 92.06513977 C-12.33189081 89.61374917 -12.33764857 87.16235858 -12.34341431 84.71096802 C-12.35393186 79.56526987 -12.35976954 74.41958739 -12.36325073 69.27388 C-12.36873592 62.67611655 -12.39276151 56.07855943 -12.42122269 49.48086071 C-12.43983494 44.41513462 -12.44505393 39.34945835 -12.44658661 34.28370094 C-12.44961703 31.85120326 -12.4576586 29.41870652 -12.47077179 26.98624229 C-12.48780179 23.58424001 -12.48595919 20.18274341 -12.47946167 16.78071594 C-12.48867645 15.77325317 -12.49789124 14.76579041 -12.50738525 13.72779846 C-12.45565517 5.09359842 -12.45565517 5.09359842 -9.12301636 1.14717102 C-6.18518782 -0.32174325 -3.22082691 -0.00084877 0 0 Z " fill="#D097FC" transform="translate(84.12301635742188,87.85282897949219)"/>
<path d="M0 0 C4.76475128 -0.10006747 9.52886984 -0.17202322 14.29443359 -0.21972656 C15.91010209 -0.23964532 17.5257004 -0.26679074 19.14111328 -0.30175781 C33.24645004 -0.59908047 44.52292529 1.1020432 56 10 C56.68835938 10.51304688 57.37671875 11.02609375 58.0859375 11.5546875 C67.53700012 19.12277979 72.42138962 29.32418032 75 41 C75 42.32 75 43.64 75 45 C66.34611381 48.58039305 57.66211594 50.90141358 48.5 52.8125 C47.46166016 53.03123779 46.42332031 53.24997559 45.35351562 53.4753418 C34.61075958 55.64079838 34.61075958 55.64079838 31 55 C26.62560844 50.98028884 24.13781706 44.95172379 21.375 39.75 C17.55895724 32.6529945 13.67890423 25.61504956 9.5625 18.6875 C9.15257812 17.9968042 8.74265625 17.3061084 8.3203125 16.59448242 C7.5554604 15.30663431 6.79034225 14.01894415 6.02490234 12.73144531 C4.61811559 10.35485369 3.23656896 7.96526876 1.875 5.5625 C1.50117188 4.90378906 1.12734375 4.24507813 0.7421875 3.56640625 C0 2 0 2 0 0 Z " fill="#90D3FA" transform="translate(326,0)"/>
<path d="M0 0 C2.97 0 5.94 0 9 0 C9 27.39 9 54.78 9 83 C-20.44171485 84.13237365 -20.44171485 84.13237365 -30.703125 84.17578125 C-32.96094767 84.19889702 -35.21876031 84.2230104 -37.4765625 84.24804688 C-40.90405056 84.28353274 -44.33113648 84.3128105 -47.75878906 84.32592773 C-51.15733427 84.34134118 -54.55485139 84.38137784 -57.953125 84.42578125 C-58.9780304 84.42387283 -60.00293579 84.42196442 -61.05889893 84.41999817 C-66.85527752 84.51991153 -70.49025039 84.97923261 -75 89 C-76.58531276 90.85537341 -76.58531276 90.85537341 -77.67578125 92.90625 C-78.10697266 93.64472168 -78.53816406 94.38319336 -78.98242188 95.14404297 C-79.42134766 95.92150879 -79.86027344 96.69897461 -80.3125 97.5 C-84.76460141 105.09521152 -89.55077629 112.07494487 -95 119 C-96.0035806 120.33064035 -97.00498205 121.66294463 -98 123 C-101.34419295 122.44144101 -102.79319375 121.59587791 -104.8125 118.875 C-105.25207031 118.31554687 -105.69164062 117.75609375 -106.14453125 117.1796875 C-107.4530652 113.8456147 -106.80308067 111.4412382 -106 108 C-104.45688545 105.03384034 -102.61516442 102.55292098 -100.59106445 99.89038086 C-98.55515718 97.05014215 -97.21015657 94.24127971 -95.88037109 91.01464844 C-92.9905365 84.80774961 -89.87135375 79.73988643 -84 76 C-72.42031485 72.17171829 -58.57621103 73.86432445 -46.59216309 74.3380127 C-41.04680035 74.53648754 -35.49854967 74.60258755 -29.9504118 74.68080997 C-25.63992475 74.74291427 -21.33391534 74.82687371 -17.02558899 74.97935486 C-16.23784592 75.00218033 -15.45010284 75.0250058 -14.63848877 75.04852295 C-13.1689766 75.09158688 -11.69973918 75.14620299 -10.23118591 75.21455383 C-6.41325888 75.32285906 -6.41325888 75.32285906 -3.10185242 73.61781311 C-0.72284177 70.12479122 -0.84754161 67.56117374 -0.79467773 63.34716797 C-0.78477814 62.66412598 -0.77487854 61.98108398 -0.76467896 61.27734375 C-0.73304691 59.01566047 -0.70829989 56.75395618 -0.68359375 54.4921875 C-0.66302569 52.92562305 -0.64202925 51.35906417 -0.62062073 49.79251099 C-0.56538478 45.66616318 -0.51598225 41.53976517 -0.46777344 37.41333008 C-0.41756952 33.20389326 -0.36187767 28.9945295 -0.30664062 24.78515625 C-0.19904042 16.52349924 -0.09759961 8.26178118 0 0 Z " fill="#92D3F8" transform="translate(273,144)"/>
<path d="M0 0 C6.9591706 5.96500337 10.3170774 14.12640812 12 23 C12 24.32 12 25.64 12 27 C3.32427886 30.58942688 -5.37553993 32.90432185 -14.5625 34.8125 C-15.60921875 35.03123779 -16.6559375 35.24997559 -17.734375 35.4753418 C-22.24087717 36.38079602 -26.38805593 37.12181711 -31 37 C-28.09996926 31.41475562 -24.69326415 27.23866184 -20.3125 22.75 C-15.22815375 17.43346463 -10.42790407 12.04584738 -5.8671875 6.26953125 C-4.02793107 4.03394969 -2.08022092 2.01088023 0 0 Z " fill="#61A7E0" transform="translate(389,18)"/>
<path d="M0 0 C5.58632171 2.4590507 10.0543461 5.96265332 14.8125 9.75 C15.56853516 10.34554688 16.32457031 10.94109375 17.10351562 11.5546875 C18.62599405 12.75397997 20.14700199 13.95514165 21.66650391 15.15820312 C25.42768809 18.12685488 29.21368283 21.06351192 33 24 C29.97996774 30.60343968 23.25404202 33.6099238 16.78125 36.375 C8.19458352 39.43559399 8.19458352 39.43559399 3 38 C0.75637987 25.20602331 -0.42356244 12.98924825 0 0 Z " fill="#AC76EA" transform="translate(353,362)"/>
<path d="M0 0 C6.15152115 7.60377336 12.19078263 15.46751757 17 24 C16.67 24.66 16.34 25.32 16 26 C13.89504036 25.93994409 11.79088565 25.85114641 9.6875 25.75 C8.51574219 25.70359375 7.34398437 25.6571875 6.13671875 25.609375 C3 25 3 25 1.32226562 23.2734375 C-0.23056784 20.60357317 -0.34907801 19.08293108 -0.29296875 16.015625 C-0.28330078 15.08105469 -0.27363281 14.14648438 -0.26367188 13.18359375 C-0.23853516 12.21550781 -0.21339844 11.24742187 -0.1875 10.25 C-0.17396484 9.26644531 -0.16042969 8.28289062 -0.14648438 7.26953125 C-0.11118726 4.84579585 -0.06188054 2.42317855 0 0 Z " fill="#8FD0F4" transform="translate(144,242)"/>
</svg>
